<svg width="16" height="18" viewBox="0 0 16 18" fill="none" xmlns="http://www.w3.org/2000/svg">
<path d="M12.6 13.8C12.2682 13.8 12 14.0688 12 14.4V16.8H1.2V1.2H7.2V5.4C7.2 5.7312 7.4682 6 7.8 6H12V8.4C12 8.7312 12.2682 9 12.6 9C12.9318 9 13.2 8.7312 13.2 8.4V5.4582C13.2018 5.4384 13.212 5.4204 13.212 5.4C13.212 5.1978 13.1124 5.019 12.9594 4.9104L8.2242 0.1758C8.1726 0.1248 8.112 0.0876 8.049 0.0588C8.0304 0.0498 8.0112 0.045 7.9908 0.0384C7.9416 0.0216 7.8912 0.0114 7.839 0.00840004C7.8258 0.00720004 7.8132 0 7.8 0H0.6C0.2682 0 0 0.2688 0 0.6V17.4C0 17.7312 0.2682 18 0.6 18H12.6C12.9318 18 13.2 17.7312 13.2 17.4V14.4C13.2 14.0688 12.9318 13.8 12.6 13.8ZM8.4 4.8V2.0484L11.1516 4.8H8.4Z" fill="#404040"/>
<path d="M15.4381 8.59054C15.2107 8.34814 14.8321 8.33614 14.5897 8.56234L8.58734 14.1783L5.80994 11.5791C5.56754 11.3523 5.18834 11.3649 4.96154 11.6073C4.73534 11.8491 4.74794 12.2289 4.98974 12.4551L8.17754 15.4377C8.29274 15.5457 8.44034 15.5997 8.58794 15.5997C8.73554 15.5997 8.88254 15.5457 8.99834 15.4377L15.4111 9.43774C15.6523 9.21214 15.6643 8.83234 15.4381 8.59054Z" fill="#404040"/>
</svg>
