<svg width="24" height="24" viewBox="0 0 24 24" fill="none" xmlns="http://www.w3.org/2000/svg">
<g clip-path="url(#clip0)">
<path fill-rule="evenodd" clip-rule="evenodd" d="M21.096 4.14314C21.2262 6.47316 19.392 8.39064 17.097 8.39064C15.0105 8.39064 13.283 6.79121 13.1043 4.7342H12.011C11.6226 4.7342 11.3077 4.41926 11.3077 4.03108C11.3077 3.64271 11.6226 3.32795 12.011 3.32795H13.0891V2.0625C13.0891 0.899782 14.0358 -0.046875 15.1985 -0.046875H18.9956C20.1583 -0.046875 21.105 0.899965 21.105 2.0625C21.105 2.59351 21.096 3.62092 21.096 4.14314ZM16.0598 13.2391C16.3329 12.9644 16.7767 12.9632 17.0514 13.2362C17.3258 13.5094 17.3271 13.9532 17.0541 14.2279L14.4954 16.8045V23.25C14.4954 23.6382 14.1806 23.9532 13.7923 23.9532C13.4039 23.9532 13.0891 23.6382 13.0891 23.25V18.2209C12.6775 18.6352 12.4508 18.9136 11.8603 19.0952C11.5637 19.1864 11.2625 19.219 10.9689 19.219H5.0625C3.90088 19.219 2.95312 18.2712 2.95312 17.1096C2.95312 15.948 3.90088 15.0002 5.0625 15.0002H10.3389L14.1191 11.1294C14.4897 10.7174 14.9455 10.3817 15.4585 10.1501C18.1059 8.95534 21.105 10.9173 21.105 13.8047V23.25C21.105 23.6382 20.7902 23.9532 20.4018 23.9532C20.0135 23.9532 19.6987 23.6382 19.6987 23.25V13.8047C19.6987 11.9248 17.7402 10.6606 16.0353 11.43C15.5504 11.649 15.4492 11.833 15.0859 12.1467L11.1702 16.1562C11.0413 16.3092 10.8481 16.4065 10.6322 16.4065H5.0625C4.44983 16.4065 4.1175 17.1567 4.56647 17.6056C4.69428 17.7334 4.86988 17.8127 5.0625 17.8127H10.9689C11.2497 17.8127 11.5531 17.7776 11.7477 17.5816L16.0598 13.2391ZM8.12019 8.57796V8.84841C8.12019 9.23677 7.80543 9.55153 7.41706 9.55153C7.02869 9.55153 6.71394 9.23677 6.71394 8.84841V8.57796H5.58893V12.1875H9.24519V8.57796H8.12019ZM4.88562 7.17171C4.49744 7.17171 4.1825 7.48665 4.1825 7.87483V12.8907C4.1825 13.279 4.49744 13.5938 4.88562 13.5938H9.94832C10.3367 13.5938 10.6514 13.279 10.6514 12.8907V7.87483C10.6514 7.48665 10.3367 7.17171 9.94832 7.17171H4.88562ZM14.519 4.7342C14.6917 6.01283 15.7872 6.98421 17.0971 6.98421C18.4069 6.98421 19.5024 6.01283 19.6751 4.7342H14.519ZM18.9956 1.35938H15.1985C14.8122 1.35938 14.4954 1.67615 14.4954 2.0625V3.32795H19.6987V2.0625C19.6987 1.67615 19.3819 1.35938 18.9956 1.35938Z" fill="#3B99FC" stroke="#3B99FC" stroke-width="0.3"/>
</g>
<defs>
<clipPath id="clip0">
<rect width="24" height="24" fill="white"/>
</clipPath>
</defs>
</svg>
